{
  "asset": {
    "version": "2.0"
  },
  "scene": 0,
  "scenes": [
    {
      "nodes": [
        0,
        1
      ]
    }
  ],
  "nodes": [
    {
      "name": "SkinnedArm",
      "mesh": 0,
      "skin": 0
    },
    {
      "name": "Joint0",
      "translation": [
        0.0,
        0.0,
        0.0
      ],
      "children": [
        2
      ]
    },
    {
      "name": "Joint1",
      "translation": [
        0.0,
        1.5,
        0.0
      ],
      "children": [
        3
      ]
    },
    {
      "name": "Joint2",
      "translation": [
        0.0,
        1.5,
        0.0
      ]
    }
  ],
  "meshes": [
    {
      "name": "BendingArm",
      "primitives": [
        {
          "attributes": {
            "POSITION": 0,
            "NORMAL": 1,
            "JOINTS_0": 2,
            "WEIGHTS_0": 3
          },
          "indices": 4,
          "mode": 4
        }
      ]
    }
  ],
  "skins": [
    {
      "joints": [
        1,
        2,
        3
      ],
      "inverseBindMatrices": 8,
      "skeleton": 1
    }
  ],
  "buffers": [
    {
      "uri": "gltf-skin-basics.bin",
      "byteLength": 1548
    }
  ],
  "bufferViews": [
    {
      "buffer": 0,
      "byteOffset": 0,
      "byteLength": 240,
      "target": 34962
    },
    {
      "buffer": 0,
      "byteOffset": 240,
      "byteLength": 240,
      "target": 34962
    },
    {
      "buffer": 0,
      "byteOffset": 480,
      "byteLength": 160,
      "target": 34962
    },
    {
      "buffer": 0,
      "byteOffset": 640,
      "byteLength": 320,
      "target": 34962
    },
    {
      "buffer": 0,
      "byteOffset": 960,
      "byteLength": 216,
      "target": 34963
    },
    {
      "buffer": 0,
      "byteOffset": 1176,
      "byteLength": 20
    },
    {
      "buffer": 0,
      "byteOffset": 1196,
      "byteLength": 80
    },
    {
      "buffer": 0,
      "byteOffset": 1276,
      "byteLength": 80
    },
    {
      "buffer": 0,
      "byteOffset": 1356,
      "byteLength": 192
    }
  ],
  "accessors": [
    {
      "bufferView": 0,
      "componentType": 5126,
      "count": 20,
      "type": "VEC3",
      "min": [
        -0.28,
        0.0,
        -0.22
      ],
      "max": [
        0.28,
        3.0,
        0.22
      ]
    },
    {
      "bufferView": 1,
      "componentType": 5126,
      "count": 20,
      "type": "VEC3"
    },
    {
      "bufferView": 2,
      "componentType": 5123,
      "count": 20,
      "type": "VEC4"
    },
    {
      "bufferView": 3,
      "componentType": 5126,
      "count": 20,
      "type": "VEC4"
    },
    {
      "bufferView": 4,
      "componentType": 5123,
      "count": 108,
      "type": "SCALAR"
    },
    {
      "bufferView": 5,
      "componentType": 5126,
      "count": 5,
      "type": "SCALAR",
      "min": [
        0.0
      ],
      "max": [
        4.0
      ]
    },
    {
      "bufferView": 6,
      "componentType": 5126,
      "count": 5,
      "type": "VEC4"
    },
    {
      "bufferView": 7,
      "componentType": 5126,
      "count": 5,
      "type": "VEC4"
    },
    {
      "bufferView": 8,
      "componentType": 5126,
      "count": 3,
      "type": "MAT4"
    }
  ],
  "animations": [
    {
      "name": "Bend",
      "samplers": [
        {
          "input": 5,
          "output": 6,
          "interpolation": "LINEAR"
        },
        {
          "input": 5,
          "output": 7,
          "interpolation": "LINEAR"
        }
      ],
      "channels": [
        {
          "sampler": 0,
          "target": {
            "node": 2,
            "path": "rotation"
          }
        },
        {
          "sampler": 1,
          "target": {
            "node": 3,
            "path": "rotation"
          }
        }
      ]
    }
  ]
}