{
  "asset": {
    "version": "2.0"
  },
  "scene": 0,
  "scenes": [
    {
      "nodes": [
        0
      ]
    }
  ],
  "nodes": [
    {
      "name": "Root",
      "children": [
        1,
        2,
        3,
        4
      ]
    },
    {
      "name": "Platform",
      "mesh": 0,
      "translation": [
        0,
        -0.25,
        0
      ],
      "scale": [
        7,
        0.5,
        4.8
      ]
    },
    {
      "name": "Bob",
      "mesh": 0,
      "translation": [
        -2.2,
        0.7,
        0
      ],
      "scale": [
        0.8,
        1.4,
        0.8
      ]
    },
    {
      "name": "SpinPivot",
      "translation": [
        0,
        1.2,
        0
      ],
      "children": [
        5
      ]
    },
    {
      "name": "Pulse",
      "mesh": 0,
      "translation": [
        2.2,
        0.7,
        0
      ],
      "scale": [
        0.8,
        0.8,
        0.8
      ]
    },
    {
      "name": "Spinner",
      "mesh": 0,
      "translation": [
        1.45,
        0,
        0
      ],
      "scale": [
        2.4,
        0.25,
        0.35
      ]
    }
  ],
  "meshes": [
    {
      "name": "Cube",
      "primitives": [
        {
          "attributes": {
            "POSITION": 0,
            "NORMAL": 1
          },
          "indices": 2
        }
      ]
    }
  ],
  "buffers": [
    {
      "uri": "gltf-animation-basics.bin",
      "byteLength": 868
    }
  ],
  "bufferViews": [
    {
      "buffer": 0,
      "byteOffset": 0,
      "byteLength": 288
    },
    {
      "buffer": 0,
      "byteOffset": 288,
      "byteLength": 288
    },
    {
      "buffer": 0,
      "byteOffset": 576,
      "byteLength": 72
    },
    {
      "buffer": 0,
      "byteOffset": 648,
      "byteLength": 20
    },
    {
      "buffer": 0,
      "byteOffset": 668,
      "byteLength": 60
    },
    {
      "buffer": 0,
      "byteOffset": 728,
      "byteLength": 80
    },
    {
      "buffer": 0,
      "byteOffset": 808,
      "byteLength": 60
    }
  ],
  "accessors": [
    {
      "bufferView": 0,
      "componentType": 5126,
      "count": 24,
      "type": "VEC3",
      "min": [
        -1,
        -1,
        -1
      ],
      "max": [
        1,
        1,
        1
      ]
    },
    {
      "bufferView": 1,
      "componentType": 5126,
      "count": 24,
      "type": "VEC3"
    },
    {
      "bufferView": 2,
      "componentType": 5123,
      "count": 36,
      "type": "SCALAR"
    },
    {
      "bufferView": 3,
      "componentType": 5126,
      "count": 5,
      "type": "SCALAR",
      "min": [
        0
      ],
      "max": [
        4
      ]
    },
    {
      "bufferView": 4,
      "componentType": 5126,
      "count": 5,
      "type": "VEC3"
    },
    {
      "bufferView": 5,
      "componentType": 5126,
      "count": 5,
      "type": "VEC4"
    },
    {
      "bufferView": 6,
      "componentType": 5126,
      "count": 5,
      "type": "VEC3"
    }
  ],
  "animations": [
    {
      "name": "TRS Demo",
      "samplers": [
        {
          "input": 3,
          "output": 4,
          "interpolation": "LINEAR"
        },
        {
          "input": 3,
          "output": 5,
          "interpolation": "LINEAR"
        },
        {
          "input": 3,
          "output": 6,
          "interpolation": "LINEAR"
        }
      ],
      "channels": [
        {
          "sampler": 0,
          "target": {
            "node": 2,
            "path": "translation"
          }
        },
        {
          "sampler": 1,
          "target": {
            "node": 3,
            "path": "rotation"
          }
        },
        {
          "sampler": 2,
          "target": {
            "node": 4,
            "path": "scale"
          }
        }
      ]
    }
  ]
}